<svg width="49" height="48" viewBox="0 0 49 48" fill="none" xmlns="http://www.w3.org/2000/svg">
<g clip-path="url(#clip0_609_8180)">
<path d="M0.871826 16C0.871826 10.4 0.871826 7.6 1.96183 5.46C2.92055 3.57846 4.45029 2.04872 6.33183 1.09C8.47183 0 11.2718 0 16.8718 0H32.8718C38.4718 0 41.2718 0 43.4118 1.09C45.2934 2.04872 46.8231 3.57846 47.7818 5.46C48.8718 7.6 48.8718 10.4 48.8718 16V32C48.8718 37.6 48.8718 40.4 47.7818 42.54C46.8231 44.4215 45.2933 45.9512 43.4118 46.91C41.2718 48 38.4718 48 32.8718 48H16.8718C11.2718 48 8.47183 48 6.33183 46.91C4.45029 45.9513 2.92055 44.4215 1.96183 42.54C0.871826 40.4 0.871826 37.6 0.871826 32V16Z" fill="white"/>
<path d="M40.8145 33.5304L37.5408 39.3051L10.8137 24.7722L11.7172 22.9419L40.8145 33.5304Z" fill="black"/>
<path d="M28.2165 10.485L42.0655 35.3095L37.5732 39.3054L24.4675 18.1323L11.8721 37.3731L10.2412 36.5109L20.871 10.485H28.2165Z" fill="black"/>
</g>
<defs>
<clipPath id="clip0_609_8180">
<rect width="48" height="48" fill="white" transform="translate(0.871826)"/>
</clipPath>
</defs>
</svg>
